<svg id="Capa_1" enable-background="new 0 0 512 512" height="512" viewBox="0 0 512 512" width="512" xmlns="http://www.w3.org/2000/svg"><g><g><g><path d="m401.37 269.817h11.081c4.141 0 7.497-3.356 7.497-7.497s-3.356-7.497-7.497-7.497h-11.081c-4.141 0-7.497 3.356-7.497 7.497.001 4.141 3.356 7.497 7.497 7.497z"/><path d="m437.384 269.817h42.914c4.141 0 7.497-3.356 7.497-7.497s-3.356-7.497-7.497-7.497h-42.914c-4.141 0-7.497 3.356-7.497 7.497s3.356 7.497 7.497 7.497z"/><path d="m401.37 297.265h11.081c4.141 0 7.497-3.356 7.497-7.497s-3.356-7.497-7.497-7.497h-11.081c-4.141 0-7.497 3.356-7.497 7.497.001 4.141 3.356 7.497 7.497 7.497z"/><path d="m437.384 297.265h42.914c4.141 0 7.497-3.356 7.497-7.497s-3.356-7.497-7.497-7.497h-42.914c-4.141 0-7.497 3.356-7.497 7.497s3.356 7.497 7.497 7.497z"/><path d="m480.298 114.654h-78.928c-4.141 0-7.497 3.356-7.497 7.497s3.356 7.497 7.497 7.497h78.927c4.141 0 7.497-3.356 7.497-7.497.001-4.141-3.355-7.497-7.496-7.497z"/><path d="m480.298 140.63h-78.928c-4.141 0-7.497 3.356-7.497 7.497s3.356 7.497 7.497 7.497h78.927c4.141 0 7.497-3.356 7.497-7.497.001-4.141-3.355-7.497-7.496-7.497z"/><path d="m480.298 166.605h-27.41c-4.141 0-7.497 3.356-7.497 7.497s3.356 7.497 7.497 7.497h27.41c4.141 0 7.497-3.356 7.497-7.497s-3.356-7.497-7.497-7.497z"/><path d="m401.37 181.599h16.943c4.141 0 7.497-3.356 7.497-7.497s-3.356-7.497-7.497-7.497h-16.943c-4.141 0-7.497 3.356-7.497 7.497.001 4.141 3.356 7.497 7.497 7.497z"/><path d="m480.298 192.58h-78.928c-4.141 0-7.497 3.356-7.497 7.497s3.356 7.497 7.497 7.497h78.927c4.141 0 7.497-3.356 7.497-7.497.001-4.141-3.355-7.497-7.496-7.497z"/><path d="m330.26 119.847h-17.475c-4.141 0-7.497 3.356-7.497 7.497s3.356 7.497 7.497 7.497h17.475c.477 0 .865.388.865.866v148.643c0 .477-.387.866-.865.866h-148.644c-.477 0-.866-.389-.866-.866v-148.643c0-.477.388-.866.866-.866h95.757c4.141 0 7.497-3.356 7.497-7.497s-3.356-7.497-7.497-7.497h-95.757c-8.745 0-15.859 7.114-15.859 15.859v148.643c0 8.745 7.114 15.859 15.859 15.859h148.644c8.744 0 15.858-7.114 15.858-15.859v-148.642c0-8.746-7.114-15.86-15.858-15.86z"/><path d="m486.254 46.118h-344.048v-11.719c0-6.345-5.162-11.508-11.507-11.508h-81.229c-.396 0-.789.02-1.175.06-5.795.59-10.333 5.499-10.333 11.448v11.719h-12.216c-14.196 0-25.746 11.548-25.746 25.744v288.091c0 14.196 11.55 25.746 25.746 25.746h182.714c-.939 11.134-2.935 31.619-5.939 46.645h-63.864c-21.621 0-39.212 17.59-39.212 39.211v10.057c0 4.141 3.356 7.497 7.497 7.497h77.898c4.141 0 7.497-3.356 7.497-7.497s-3.356-7.497-7.497-7.497h-70.401v-2.561c0-13.354 10.865-24.218 24.219-24.218h234.687c13.354 0 24.219 10.865 24.219 24.218v2.561h-178.052c-4.141 0-7.497 3.356-7.497 7.497s3.356 7.497 7.497 7.497h185.547c4.141 0 7.497-3.356 7.497-7.497v-10.057c0-21.622-17.591-39.211-39.212-39.211h-63.864c-3.004-15.026-5-35.51-5.939-46.645h182.714c14.196 0 25.746-11.55 25.746-25.746v-288.091c-.001-14.196-11.551-25.744-25.747-25.744zm-344.048 27.99v-12.995h344.044c5.931 0 10.756 4.82 10.756 10.745v15.743h-354.8zm242.457 145.526v-117.039h112.343v117.039zm112.343 14.993v82.834h-112.343v-82.834zm-399.425-196.742h29.632v28.727h-29.632zm0 43.72h29.632v28.728h-29.632zm0 43.721h29.632v28.727h-29.632zm0 43.721h29.632v28.727h-29.632zm0 43.72h29.632v28.728h-29.632zm0 43.721h29.632v28.727h-29.632zm-44.625-218.603h29.632v28.727h-29.632zm0 43.72h29.632v28.728h-29.632zm0 43.721h29.632v28.727h-29.632zm0 43.721h29.632v28.727h-29.632zm0 43.72h29.632v28.728h-29.632zm0 43.721h29.632v28.727h-29.632zm-37.962-184.63c0-5.925 4.825-10.745 10.756-10.745h12.212v12.995 13.493h-22.968zm-.001 30.737h22.969v186.106c0 5.949 4.538 10.858 10.333 11.448.386.039 82.404.059 82.404.059 6.345 0 11.507-5.163 11.507-11.508v-186.105h227.464v214.866h-354.677zm202.796 329.748c2.977-16.113 4.867-36.2 5.723-46.645h64.976c.856 10.445 2.746 30.531 5.723 46.645zm279.218-72.39c0 5.929-4.823 10.752-10.752 10.752h-460.509c-5.929 0-10.752-4.823-10.752-10.752v-27.498h482.013z"/></g></g></g></svg>